 <svg  version="1.0" xmlns="http://www.w3.org/2000/svg"  width="781.000000pt" height="290.000000pt" viewBox="0 0 781.000000 290.000000"  preserveAspectRatio="xMidYMid meet">  <g transform="translate(0.000000,290.000000) scale(0.050000,-0.050000)" fill="#000000" stroke="none"> <path d="M540 5380 c0 -29 -13 -40 -50 -40 l-50 0 0 -1270 0 -1270 1290 0 c1277 0 1290 0 1290 40 0 29 13 40 50 40 l50 0 0 1270 0 1270 -1290 0 c-1277 0 -1290 0 -1290 -40z m2480 -1258 l0 -1218 -100 32 c-55 17 -100 41 -100 53 0 11 -9 8 -20 -9 -11 -18 -20 -20 -20 -6 0 14 -20 20 -51 14 -29 -5 -63 3 -80 20 -39 39 -37 52 9 52 54 0 197 169 227 268 18 59 25 273 25 752 0 734 -17 845 -144 947 -26 20 -61 51 -79 69 -18 18 -46 34 -62 37 -15 2 -43 17 -62 33 -63 55 -1383 87 -1554 37 -72 -21 -153 -64 -174 -93 -9 -13 -15 -13 -15 0 -1 51 -64 -108 -68 -170 -2 -38 -21 -101 -43 -140 -68 -121 -71 -1259 -3 -1407 60 -130 152 -222 288 -286 l105 -49 689 6 c378 3 678 -1 665 -11 -13 -9 0 -11 31 -5 31 7 60 2 68 -11 8 -13 5 -18 -7 -10 -11 7 -25 -4 -30 -24 -5 -20 -22 -39 -37 -42 -75 -16 -1402 -29 -1498 -15 -60 9 -144 19 -186 23 -227 21 -247 132 -225 1221 7 363 14 770 15 905 l2 245 1217 0 1217 0 0 -1218z m-503 909 c268 -149 292 -221 299 -905 8 -731 -29 -859 -276 -961 -154 -63 -1340 -61 -1460 2 -138 73 -279 234 -316 360 -37 130 -26 1147 15 1255 113 303 159 317 991 312 l640 -4 107 -59z"/> <path d="M1945 4907 c-78 -38 -159 -117 -176 -170 -7 -21 -47 -53 -91 -70 -43 -17 -78 -39 -78 -49 0 -9 -25 -30 -55 -45 -113 -59 -343 -313 -407 -451 -34 -72 -70 -148 -80 -167 -104 -200 133 -342 566 -339 219 2 237 -1 270 -42 43 -52 176 -154 201 -154 10 0 29 -22 41 -50 19 -40 38 -50 99 -50 l75 0 -1 295 c-1 207 -9 310 -28 344 -90 166 -302 198 -443 68 -48 -45 -55 -46 -110 -18 -32 17 -96 31 -143 31 -91 0 -105 21 -59 91 15 21 37 66 49 99 12 33 37 103 56 155 41 114 106 132 142 38 81 -216 448 -246 598 -50 215 281 -111 690 -426 534z m211 -251 c62 -62 9 -176 -83 -176 -42 0 -93 55 -93 100 0 81 119 133 176 76z m-772 -627 c14 -18 44 -51 66 -75 22 -24 38 -51 35 -60 -4 -10 3 -11 15 -4 23 14 140 -31 140 -55 0 -8 10 -15 21 -15 12 0 15 11 6 25 -10 17 -4 16 19 -2 66 -54 -9 -92 -85 -44 -16 10 -39 12 -50 5 -31 -20 -210 -18 -197 2 6 10 32 14 58 9 27 -5 42 -1 35 10 -7 11 -41 15 -76 9 -83 -13 -105 2 -117 81 -7 42 -3 61 10 52 12 -7 17 -1 12 15 -19 57 68 95 108 47z m710 -159 c8 -22 15 -44 17 -50 1 -5 10 -27 19 -49 12 -26 9 -41 -9 -47 -17 -6 -18 -13 -4 -22 13 -8 6 -23 -20 -39 -23 -14 -36 -17 -29 -7 11 19 -27 44 -85 56 -15 3 -47 24 -71 47 -44 41 -84 56 -64 25 5 -9 -18 -13 -51 -8 l-61 9 93 48 c52 26 113 48 137 48 42 2 43 2 4 18 -30 13 -22 16 35 14 56 -2 79 -13 89 -43z"/> <path d="M3459 5050 c-1 0 -3 -259 -5 -575 l-4 -575 100 0 100 0 -7 240 -6 240 241 0 242 0 0 80 0 80 -240 0 -240 0 0 177 0 176 271 -9 272 -9 -7 83 -6 84 -355 4 c-195 2 -355 4 -356 4z"/> <path d="M4348 5042 c-4 -5 -8 -264 -8 -575 l0 -567 105 0 105 0 -6 575 -5 575 -91 0 c-50 0 -95 -4 -100 -8z"/> <path d="M4686 5027 c-5 -13 -6 -49 -2 -80 l6 -57 175 3 175 3 0 -498 0 -498 100 0 100 0 0 499 0 498 180 -11 180 -12 0 88 0 88 -453 0 c-326 0 -455 -7 -461 -23z"/> <path d="M5759 5050 c0 0 -2 -259 -5 -575 l-4 -575 108 0 107 0 -9 220 -9 220 112 0 113 0 115 -220 116 -220 110 0 c60 0 106 7 101 15 -188 335 -256 474 -235 481 229 77 253 480 36 599 -55 30 -356 55 -656 55z m540 -208 c183 -129 51 -342 -213 -342 l-136 0 3 195 c2 107 4 197 5 200 8 21 301 -25 341 -53z"/> <path d="M7600 5054 c0 -5 86 -170 190 -366 l190 -355 0 -217 0 -216 105 0 105 0 -6 206 -6 206 143 269 c79 148 167 311 196 363 63 114 61 116 -75 99 l-109 -13 -121 -264 c-67 -145 -127 -258 -133 -250 -7 8 -65 129 -130 269 l-119 255 -70 0 c-38 0 -90 6 -115 13 -25 6 -45 7 -45 1z"/> <path d="M7062 4995 c-9 -25 -103 -276 -209 -558 -106 -283 -193 -519 -193 -526 0 -7 47 -10 104 -7 l104 6 40 126 40 125 228 -5 228 -6 41 -125 41 -125 109 0 c96 0 108 4 95 35 -8 19 -106 276 -217 570 l-203 535 -95 0 c-81 0 -99 -7 -113 -45z m201 -440 c42 -124 77 -227 77 -230 0 -3 -75 -5 -167 -5 l-167 0 81 239 c45 132 85 236 90 231 5 -5 44 -111 86 -235z"/> <path d="M4725 3589 c-25 -17 -45 -44 -45 -60 0 -16 -9 -29 -20 -29 -11 0 -20 -18 -20 -40 0 -22 9 -40 20 -40 11 0 20 -53 20 -120 0 -107 4 -120 40 -120 36 0 40 13 40 120 0 93 7 120 30 120 17 0 30 14 30 30 0 17 -13 30 -30 30 -46 0 -36 54 12 66 45 12 43 61 -4 69 -15 3 -48 -8 -73 -26z"/> <path d="M5395 3598 c-19 -11 -35 -37 -35 -57 0 -20 -13 -42 -30 -48 -16 -7 -30 -26 -30 -42 0 -17 14 -31 30 -31 23 0 30 -27 30 -120 0 -108 4 -120 41 -120 38 0 40 8 27 120 -11 103 -9 120 19 120 43 0 42 39 -2 72 -33 26 -32 28 10 40 54 15 62 88 10 87 -19 0 -51 -9 -70 -21z"/> <path d="M3448 3568 c7 -17 12 -110 12 -207 l0 -176 85 0 c114 0 151 23 166 104 24 129 -61 239 -150 192 -38 -21 -41 -17 -41 48 0 59 -7 71 -42 71 -30 0 -39 -9 -30 -32z m188 -220 c7 -68 -37 -120 -86 -101 -31 12 -43 133 -16 161 36 35 96 1 102 -60z"/> <path d="M4871 3582 c-6 -9 4 -29 21 -43 33 -28 78 9 56 45 -14 21 -63 20 -77 -2z"/> <path d="M4360 3530 c0 -16 -9 -30 -20 -30 -11 0 -20 -18 -20 -40 0 -22 9 -40 20 -40 11 0 20 -37 20 -81 0 -107 30 -159 91 -159 54 0 68 48 19 67 -20 8 -30 39 -30 92 0 59 8 81 30 81 17 0 30 14 30 31 0 16 -13 35 -30 42 -16 6 -30 24 -30 39 0 15 -18 28 -40 28 -22 0 -40 -13 -40 -30z"/> <path d="M5020 3520 c0 -22 -9 -40 -20 -40 -11 0 -20 -13 -20 -30 0 -16 9 -30 20 -30 11 0 20 -43 20 -96 0 -106 25 -144 94 -144 51 0 63 49 16 67 -43 17 -40 151 5 186 33 26 33 28 0 54 -19 15 -35 38 -35 50 0 13 -18 23 -40 23 -27 0 -40 -13 -40 -40z"/> <path d="M3813 3459 c-108 -85 -49 -279 85 -279 66 0 120 50 87 83 -14 14 -25 14 -34 -1 -19 -31 -82 -27 -110 7 -20 24 -9 30 73 35 118 7 140 64 58 146 -61 61 -91 62 -159 9z m122 -74 c5 -16 -13 -25 -53 -25 -47 0 -58 7 -49 31 14 36 90 31 102 -6z"/> <path d="M4105 3470 c-80 -57 -52 -132 60 -161 30 -7 55 -21 55 -30 0 -34 -45 -43 -92 -18 -53 29 -79 16 -61 -30 26 -67 200 -63 222 6 19 59 -8 102 -75 119 -34 9 -65 27 -69 40 -10 29 67 33 85 4 15 -24 70 -27 70 -4 0 74 -127 122 -195 74z"/> <path d="M4892 3478 c-36 -113 -26 -300 15 -294 40 6 43 16 36 146 -6 135 -32 208 -51 148z"/> <path d="M5573 3459 c-100 -79 -51 -279 68 -279 157 0 209 232 67 297 -67 31 -74 30 -135 -18z m143 -111 c7 -68 -33 -115 -81 -97 -77 29 -49 177 31 165 33 -4 46 -22 50 -68z"/> <path d="M5840 3337 c0 -144 3 -157 40 -157 35 0 40 13 40 112 0 95 6 113 40 122 78 21 48 81 -40 81 l-80 0 0 -158z"/> <path d="M6140 3487 c0 -6 23 -76 51 -153 52 -146 52 -194 0 -194 -35 0 -42 -51 -10 -71 63 -38 268 368 214 423 -30 30 -72 -15 -85 -91 -18 -105 -40 -103 -68 9 -19 77 -102 140 -102 77z"/> <path d="M6500 3474 c-126 -63 -85 -276 56 -290 134 -14 197 165 95 267 -56 55 -80 59 -151 23z m120 -95 c42 -78 -30 -169 -93 -117 -28 24 -37 121 -14 145 27 27 86 12 107 -28z"/> <path d="M6753 3487 c-26 -26 -13 -218 17 -261 25 -36 49 -43 130 -41 l100 2 0 146 c0 132 -4 147 -39 147 -33 0 -40 -16 -45 -115 -9 -179 -83 -171 -92 10 -6 118 -28 154 -71 112z"/> </g> </svg> 